<svg xmlns="http://www.w3.org/2000/svg" width="427.165" height="73" viewBox="0 0 427.165 73"><path d="M3365.657,13889.2a10.84,10.84,0,0,1-3.739,8.777c-2.471,2.092-6.115,3.137-10.867,3.137a19.442,19.442,0,0,1-9.094-1.932,14.646,14.646,0,0,1-5.957-5.99l4.372-2.912a12.683,12.683,0,0,0,17.332,4.244,5.708,5.708,0,0,0,2.44-4.912,5.578,5.578,0,0,0-.76-3.008,7.192,7.192,0,0,0-2.091-2.062,12.636,12.636,0,0,0-2.947-1.328c-1.109-.35-2.25-.668-3.486-.98-1.964-.479-3.8-.984-5.513-1.492a18,18,0,0,1-4.467-2.029,8.231,8.231,0,0,1-2.947-3.135,9.792,9.792,0,0,1-1.109-4.912,11.013,11.013,0,0,1,3.454-8.52q3.469-3.141,10.361-3.141a16.4,16.4,0,0,1,8.777,2.063,14.905,14.905,0,0,1,5.133,5.193l-4.278,3.041a11.848,11.848,0,0,0-3.833-4.055,10.782,10.782,0,0,0-5.8-1.426,9.672,9.672,0,0,0-6.115,1.713,5.679,5.679,0,0,0-2.186,4.656,5,5,0,0,0,.633,2.6,5.4,5.4,0,0,0,1.9,1.773,13.688,13.688,0,0,0,3.042,1.236c1.2.348,2.6.7,4.151,1.078,1.837.506,3.58,1.014,5.228,1.551a15.844,15.844,0,0,1,4.34,2.125,9.045,9.045,0,0,1,2.915,3.357A11.4,11.4,0,0,1,3365.657,13889.2Zm22.369,6.4v-31.145h5.386v31.145Zm60.453,4.656v-33.459l-11.185,22.465h-3.358l-11.058-22.465v33.459h-5.133v-40.4h7.287l10.709,21.99,10.8-21.99h7.065v40.4Zm52.532-27.5q0,7.318-3.422,10.553c-2.281,2.186-5.988,3.26-11.153,3.26H3480.1v13.689h-5.386v-40.4h11.977q7.556,0,10.931,3.139C3499.9,13865.086,3501.011,13868.318,3501.011,13872.752Zm-5.672.127q0-4.233-2.091-6.178c-1.394-1.3-3.8-1.965-7.193-1.965H3480.1v16.922h5.228a16.733,16.733,0,0,0,6.21-.826,5.355,5.355,0,0,0,2.883-2.7A11.763,11.763,0,0,0,3495.34,13872.879Zm24.365,27.375v-40.4h5.386v35.486h18.281v4.912Zm40.746,0v-40.4h24.714v4.881h-19.3v11.787h16.476v4.908h-16.476v13.91h19.3v4.912Zm74.141-11.693c0,4.027-1.394,7.006-4.183,8.873-2.756,1.9-6.622,2.82-11.564,2.82h-15.177v-40.4h14.258c5.2,0,8.9.762,11.121,2.25,2.25,1.521,3.358,3.9,3.358,7.191a9.477,9.477,0,0,1-1.837,6.086,9.281,9.281,0,0,1-5.7,3.135c3.39.475,5.861,1.521,7.414,3.2A9.685,9.685,0,0,1,3634.592,13888.561Zm-10.52-17.455a3.257,3.257,0,0,0-1.679-3.2,11.7,11.7,0,0,0-5.259-.889h-5.229v8.65h5.006a10.973,10.973,0,0,0,5.418-1.014A3.743,3.743,0,0,0,3624.073,13871.105Zm2.123,16.73a4.1,4.1,0,0,0-1.838-3.836c-1.236-.762-3.517-1.141-6.907-1.141h-5.545v10.105h4.151a30.818,30.818,0,0,0,6.653-.473,4.623,4.623,0,0,0,2.662-1.586A5.069,5.069,0,0,0,3626.2,13887.836Zm24.682,12.418v-40.4h26.234v7.287h-18v8.584h15.145v7.293h-15.145v9.7h18v7.539Zm42.836,0v-40.4h26.235v7.287h-18v8.584h15.176v7.293h-15.176v9.7h18v7.539Zm40.588,0v-6.936l18.535-25.92h-17.68v-7.543h27.5v6.625l-18.694,26.234h19.2v7.539Z" transform="translate(-3336 -13842.018)" fill="#fefefe"/><rect width="160" height="5" transform="translate(266.5 68)" fill="#f4ae9c"/><path d="M4827.7,13336.308l3.833-6.655,3.833-6.653H4820l3.866,6.653Z" transform="translate(-4772.981 -13322.999)" fill="#f4ae9c" fill-rule="evenodd"/></svg>